<svg width="38" height="38" viewBox="0 0 38 38" fill="none" xmlns="http://www.w3.org/2000/svg">
<path d="M19.38 20.9H13.3C12.7617 20.9 12.3101 20.7176 11.9453 20.3528C11.5805 19.988 11.3987 19.5371 11.4 19C11.4013 18.4629 11.5837 18.012 11.9472 17.6472C12.3107 17.2824 12.7617 17.1 13.3 17.1H19.38L17.67 15.39C17.3217 15.0417 17.1475 14.5983 17.1475 14.06C17.1475 13.5217 17.3217 13.0783 17.67 12.73C18.0183 12.3817 18.4617 12.2075 19 12.2075C19.5383 12.2075 19.9817 12.3817 20.33 12.73L25.27 17.67C25.65 18.05 25.84 18.4933 25.84 19C25.84 19.5067 25.65 19.95 25.27 20.33L20.33 25.27C19.9817 25.6183 19.5383 25.7925 19 25.7925C18.4617 25.7925 18.0183 25.6183 17.67 25.27C17.3217 24.9217 17.1475 24.4783 17.1475 23.94C17.1475 23.4017 17.3217 22.9583 17.67 22.61L19.38 20.9ZM19 38C21.6283 38 24.0983 37.5009 26.41 36.5028C28.7217 35.5047 30.7325 34.1512 32.4425 32.4425C34.1525 30.7338 35.5059 28.7229 36.5028 26.41C37.4997 24.0971 37.9987 21.6271 38 19C38.0013 16.3729 37.5022 13.9029 36.5028 11.59C35.5034 9.27707 34.15 7.26623 32.4425 5.5575C30.735 3.84877 28.7242 2.49533 26.41 1.4972C24.0958 0.499067 21.6258 0 19 0C16.3742 0 13.9042 0.499067 11.59 1.4972C9.27582 2.49533 7.26498 3.84877 5.55751 5.5575C3.85005 7.26623 2.49599 9.27707 1.49532 11.59C0.494656 13.9029 -0.00378036 16.3729 1.90735e-05 19C0.00382233 21.6271 0.502888 24.0971 1.49722 26.41C2.49155 28.7229 3.84498 30.7338 5.55751 32.4425C7.27005 34.1512 9.28088 35.5053 11.59 36.5047C13.8991 37.5041 16.3691 38.0025 19 38Z" fill="#29567A"/>
</svg>
