<svg width="38" height="38" viewBox="0 0 38 38" fill="none" xmlns="http://www.w3.org/2000/svg">
<path d="M18.62 20.9H24.7C25.2383 20.9 25.6899 20.7176 26.0547 20.3528C26.4195 19.988 26.6013 19.5371 26.6 19C26.5987 18.4629 26.4163 18.012 26.0528 17.6472C25.6893 17.2824 25.2383 17.1 24.7 17.1H18.62L20.33 15.39C20.6783 15.0417 20.8525 14.5983 20.8525 14.06C20.8525 13.5217 20.6783 13.0783 20.33 12.73C19.9817 12.3817 19.5383 12.2075 19 12.2075C18.4617 12.2075 18.0183 12.3817 17.67 12.73L12.73 17.67C12.35 18.05 12.16 18.4933 12.16 19C12.16 19.5067 12.35 19.95 12.73 20.33L17.67 25.27C18.0183 25.6183 18.4617 25.7925 19 25.7925C19.5383 25.7925 19.9817 25.6183 20.33 25.27C20.6783 24.9217 20.8525 24.4783 20.8525 23.94C20.8525 23.4017 20.6783 22.9583 20.33 22.61L18.62 20.9ZM19 38C16.3717 38 13.9017 37.5009 11.59 36.5028C9.27833 35.5047 7.2675 34.1512 5.5575 32.4425C3.8475 30.7338 2.49407 28.7229 1.4972 26.41C0.500336 24.0971 0.00126907 21.6271 2.40506e-06 19C-0.00126426 16.3729 0.497802 13.9029 1.4972 11.59C2.4966 9.27707 3.85003 7.26623 5.5575 5.5575C7.26496 3.84877 9.2758 2.49533 11.59 1.4972C13.9042 0.499067 16.3742 0 19 0C21.6258 0 24.0958 0.499067 26.41 1.4972C28.7242 2.49533 30.735 3.84877 32.4425 5.5575C34.1499 7.26623 35.504 9.27707 36.5047 11.59C37.5053 13.9029 38.0038 16.3729 38 19C37.9962 21.6271 37.4971 24.0971 36.5028 26.41C35.5084 28.7229 34.155 30.7338 32.4425 32.4425C30.73 34.1512 28.7191 35.5053 26.41 36.5047C24.1009 37.5041 21.6309 38.0025 19 38Z" fill="#29567A"/>
</svg>
